<mxfile host="app.diagrams.net" modified="2023-10-25T04:03:36.827Z" agent="Mozilla/5.0 (Windows NT 10.0; Win64; x64) AppleWebKit/537.36 (KHTML, like Gecko) Chrome/118.0.0.0 Safari/537.36" version="22.0.7" etag="vKA3gzCzonusD4gZARUH" type="github">
  <diagram name="Page-1" id="vUCIYUwO2dWF6-grSWv2">
    <mxGraphModel>
      <root>
        <mxCell id="0" />
        <mxCell id="1" parent="0" />
      </root>
    </mxGraphModel>
  </diagram>
</mxfile>
